<mxfile host="app.diagrams.net" modified="2021-10-17T16:59:42.905Z" agent="5.0 (Windows NT 10.0; Win64; x64) AppleWebKit/537.36 (KHTML, like Gecko) Chrome/94.0.4606.81 Safari/537.36" etag="HYAXD54OVC8ghxB4Kh1_" version="15.5.4" type="github">
  <diagram id="C5RBs43oDa-KdzZeNtuy" name="Page-1">
    <mxGraphModel dx="1574" dy="831" grid="1" gridSize="10" guides="1" tooltips="1" connect="1" arrows="1" fold="1" page="0" pageScale="1" pageWidth="827" pageHeight="1169" math="0" shadow="0">
      <root>
        <mxCell id="WIyWlLk6GJQsqaUBKTNV-0" />
        <mxCell id="WIyWlLk6GJQsqaUBKTNV-1" parent="WIyWlLk6GJQsqaUBKTNV-0" />
        <mxCell id="CxFgCEpARKMzy2yxFjaQ-2" value="" style="edgeStyle=orthogonalEdgeStyle;rounded=0;orthogonalLoop=1;jettySize=auto;html=1;" edge="1" parent="WIyWlLk6GJQsqaUBKTNV-1" source="CxFgCEpARKMzy2yxFjaQ-0" target="CxFgCEpARKMzy2yxFjaQ-1">
          <mxGeometry relative="1" as="geometry" />
        </mxCell>
        <mxCell id="CxFgCEpARKMzy2yxFjaQ-0" value="Start" style="ellipse;whiteSpace=wrap;html=1;" vertex="1" parent="WIyWlLk6GJQsqaUBKTNV-1">
          <mxGeometry x="370" y="40" width="120" height="80" as="geometry" />
        </mxCell>
        <mxCell id="CxFgCEpARKMzy2yxFjaQ-4" value="" style="edgeStyle=orthogonalEdgeStyle;rounded=0;orthogonalLoop=1;jettySize=auto;html=1;" edge="1" parent="WIyWlLk6GJQsqaUBKTNV-1" source="CxFgCEpARKMzy2yxFjaQ-1" target="CxFgCEpARKMzy2yxFjaQ-3">
          <mxGeometry relative="1" as="geometry" />
        </mxCell>
        <mxCell id="CxFgCEpARKMzy2yxFjaQ-1" value="let i, arry[i], n, max=0" style="shape=parallelogram;perimeter=parallelogramPerimeter;whiteSpace=wrap;html=1;fixedSize=1;" vertex="1" parent="WIyWlLk6GJQsqaUBKTNV-1">
          <mxGeometry x="330" y="190" width="200" height="90" as="geometry" />
        </mxCell>
        <mxCell id="CxFgCEpARKMzy2yxFjaQ-6" value="false" style="edgeStyle=orthogonalEdgeStyle;rounded=0;orthogonalLoop=1;jettySize=auto;html=1;" edge="1" parent="WIyWlLk6GJQsqaUBKTNV-1" source="CxFgCEpARKMzy2yxFjaQ-3" target="CxFgCEpARKMzy2yxFjaQ-5">
          <mxGeometry relative="1" as="geometry" />
        </mxCell>
        <mxCell id="CxFgCEpARKMzy2yxFjaQ-8" value="true" style="edgeStyle=orthogonalEdgeStyle;rounded=0;orthogonalLoop=1;jettySize=auto;html=1;" edge="1" parent="WIyWlLk6GJQsqaUBKTNV-1" source="CxFgCEpARKMzy2yxFjaQ-3" target="CxFgCEpARKMzy2yxFjaQ-7">
          <mxGeometry relative="1" as="geometry" />
        </mxCell>
        <mxCell id="CxFgCEpARKMzy2yxFjaQ-3" value="i&amp;lt;n" style="rhombus;whiteSpace=wrap;html=1;" vertex="1" parent="WIyWlLk6GJQsqaUBKTNV-1">
          <mxGeometry x="375" y="478.75" width="110" height="115" as="geometry" />
        </mxCell>
        <mxCell id="CxFgCEpARKMzy2yxFjaQ-19" value="" style="edgeStyle=orthogonalEdgeStyle;rounded=0;orthogonalLoop=1;jettySize=auto;html=1;" edge="1" parent="WIyWlLk6GJQsqaUBKTNV-1" source="CxFgCEpARKMzy2yxFjaQ-5" target="CxFgCEpARKMzy2yxFjaQ-15">
          <mxGeometry relative="1" as="geometry" />
        </mxCell>
        <mxCell id="CxFgCEpARKMzy2yxFjaQ-5" value="print(max)" style="shape=parallelogram;perimeter=parallelogramPerimeter;whiteSpace=wrap;html=1;fixedSize=1;" vertex="1" parent="WIyWlLk6GJQsqaUBKTNV-1">
          <mxGeometry x="370" y="670" width="120" height="60" as="geometry" />
        </mxCell>
        <mxCell id="CxFgCEpARKMzy2yxFjaQ-10" value="true" style="edgeStyle=orthogonalEdgeStyle;rounded=0;orthogonalLoop=1;jettySize=auto;html=1;" edge="1" parent="WIyWlLk6GJQsqaUBKTNV-1" source="CxFgCEpARKMzy2yxFjaQ-7" target="CxFgCEpARKMzy2yxFjaQ-9">
          <mxGeometry relative="1" as="geometry" />
        </mxCell>
        <mxCell id="CxFgCEpARKMzy2yxFjaQ-12" value="false" style="edgeStyle=orthogonalEdgeStyle;rounded=0;orthogonalLoop=1;jettySize=auto;html=1;" edge="1" parent="WIyWlLk6GJQsqaUBKTNV-1" source="CxFgCEpARKMzy2yxFjaQ-7" target="CxFgCEpARKMzy2yxFjaQ-11">
          <mxGeometry relative="1" as="geometry" />
        </mxCell>
        <mxCell id="CxFgCEpARKMzy2yxFjaQ-7" value="arry[i]&amp;gt;max" style="rhombus;whiteSpace=wrap;html=1;" vertex="1" parent="WIyWlLk6GJQsqaUBKTNV-1">
          <mxGeometry x="560" y="470" width="140" height="132.5" as="geometry" />
        </mxCell>
        <mxCell id="CxFgCEpARKMzy2yxFjaQ-13" style="edgeStyle=orthogonalEdgeStyle;rounded=0;orthogonalLoop=1;jettySize=auto;html=1;" edge="1" parent="WIyWlLk6GJQsqaUBKTNV-1" source="CxFgCEpARKMzy2yxFjaQ-9" target="CxFgCEpARKMzy2yxFjaQ-11">
          <mxGeometry relative="1" as="geometry">
            <Array as="points">
              <mxPoint x="860" y="380" />
            </Array>
          </mxGeometry>
        </mxCell>
        <mxCell id="CxFgCEpARKMzy2yxFjaQ-9" value="max=arry[i]" style="whiteSpace=wrap;html=1;" vertex="1" parent="WIyWlLk6GJQsqaUBKTNV-1">
          <mxGeometry x="790" y="506.25" width="120" height="60" as="geometry" />
        </mxCell>
        <mxCell id="CxFgCEpARKMzy2yxFjaQ-14" style="edgeStyle=orthogonalEdgeStyle;rounded=0;orthogonalLoop=1;jettySize=auto;html=1;" edge="1" parent="WIyWlLk6GJQsqaUBKTNV-1" source="CxFgCEpARKMzy2yxFjaQ-11">
          <mxGeometry relative="1" as="geometry">
            <mxPoint x="430" y="380" as="targetPoint" />
          </mxGeometry>
        </mxCell>
        <mxCell id="CxFgCEpARKMzy2yxFjaQ-11" value="i++" style="whiteSpace=wrap;html=1;" vertex="1" parent="WIyWlLk6GJQsqaUBKTNV-1">
          <mxGeometry x="570" y="350" width="120" height="60" as="geometry" />
        </mxCell>
        <mxCell id="CxFgCEpARKMzy2yxFjaQ-15" value="end" style="ellipse;whiteSpace=wrap;html=1;" vertex="1" parent="WIyWlLk6GJQsqaUBKTNV-1">
          <mxGeometry x="370" y="790" width="120" height="60" as="geometry" />
        </mxCell>
      </root>
    </mxGraphModel>
  </diagram>
</mxfile>
